<?xml version="1.0" encoding="UTF-8" standalone="no"?>
<!-- Generator: Adobe Illustrator 16.0.0, SVG Export Plug-In . SVG Version: 6.00 Build 0)  -->

<svg
   xmlns:dc="http://purl.org/dc/elements/1.1/"
   xmlns:cc="http://creativecommons.org/ns#"
   xmlns:rdf="http://www.w3.org/1999/02/22-rdf-syntax-ns#"
   xmlns:svg="http://www.w3.org/2000/svg"
   xmlns="http://www.w3.org/2000/svg"
   xmlns:sodipodi="http://sodipodi.sourceforge.net/DTD/sodipodi-0.dtd"
   xmlns:inkscape="http://www.inkscape.org/namespaces/inkscape"
   version="1.1"
   id="Capa_1"
   x="0px"
   y="0px"
   width="492.207"
   height="311.38501"
   viewBox="0 0 492.207 311.38501"
   xml:space="preserve"
   inkscape:version="0.91 r13725"
   sodipodi:docname="brazil-colored.svg"><metadata
     id="metadata45"><rdf:RDF><cc:Work
         rdf:about=""><dc:format>image/svg+xml</dc:format><dc:type
           rdf:resource="http://purl.org/dc/dcmitype/StillImage" /><dc:title></dc:title></cc:Work></rdf:RDF></metadata><defs
     id="defs43" /><sodipodi:namedview
     pagecolor="#ffffff"
     bordercolor="#666666"
     borderopacity="1"
     objecttolerance="10"
     gridtolerance="10"
     guidetolerance="10"
     inkscape:pageopacity="0"
     inkscape:pageshadow="2"
     inkscape:window-width="1366"
     inkscape:window-height="713"
     id="namedview41"
     showgrid="false"
     inkscape:zoom="0.75371782"
     inkscape:cx="397.9265"
     inkscape:cy="239.42577"
     inkscape:window-x="0"
     inkscape:window-y="26"
     inkscape:window-maximized="1"
     inkscape:current-layer="Capa_1"
     showguides="false" /><g
     id="g11"
     transform="translate(0,-168.61499)" /><g
     id="g13"
     transform="translate(0,-168.61499)" /><g
     id="g15"
     transform="translate(0,-168.61499)" /><g
     id="g17"
     transform="translate(0,-168.61499)" /><g
     id="g19"
     transform="translate(0,-168.61499)" /><g
     id="g21"
     transform="translate(0,-168.61499)" /><g
     id="g23"
     transform="translate(0,-168.61499)" /><g
     id="g25"
     transform="translate(0,-168.61499)" /><g
     id="g27"
     transform="translate(0,-168.61499)" /><g
     id="g29"
     transform="translate(0,-168.61499)" /><g
     id="g31"
     transform="translate(0,-168.61499)" /><g
     id="g33"
     transform="translate(0,-168.61499)" /><g
     id="g35"
     transform="translate(0,-168.61499)" /><g
     id="g37"
     transform="translate(0,-168.61499)" /><g
     id="g39"
     transform="translate(0,-168.61499)" /><path
     inkscape:connector-curvature="0"
     d="m 476.96698,10.296983 -459.36051,0 0,300.173837 459.36051,0 0,-247.762531 z M 247.28673,155.13722 61.62852,153.29646 252.67364,163.74821 432.94493,153.29646 Z"
     id="path5-0"
     style="fill:#f5df41;fill-opacity:1"
     sodipodi:nodetypes="ccccccccccc" /><g
     id="g3"
     transform="matrix(1,0,0,0.95346436,6.056297,-73.088525)"><path
       d="M 486.63379,77.924635 -5.3070258,76.533124 -2.6535129,402.41967 480,403.11543 480,88 Z M 240,381.1 46,240.1 l 194,-141 194,141 z"
       id="path5"
       style="fill:#56ff2c;fill-opacity:1"
       inkscape:connector-curvature="0"
       sodipodi:nodetypes="ccccccccccc" /><path
       d="m 174.8,174.6 c 57.5,17 110.4,49.3 151.7,92.801 2.7,-8.601 4.1,-17.801 4.1,-27.301 0,-50.6 -41,-91.7 -91.7,-91.7 -24.9,0 -47.6,10 -64.1,26.2 z"
       id="path7"
       style="fill:#2d42f8;fill-opacity:1"
       inkscape:connector-curvature="0" /><path
       d="m 160.4,192.8 c -8.3,13.8 -13.1,30 -13.1,47.3 0,50.6 41,91.7 91.7,91.7 32.9,0 61.7,-17.3 77.9,-43.399 C 275.1,242.199 220.6,208.8 160.4,192.8 Z"
       id="path9"
       style="fill:#2d42f8;fill-opacity:1"
       inkscape:connector-curvature="0" /></g><path
     d="m 492.95669,1.467136 -50.1309,0 0,309.394454 50.1309,0 0,-255.373211 z M 466.64415,151.70264 447.63,148.85922 l 19.42985,51.82654 21.09263,-51.82654 z"
     id="path5-2-6"
     style="fill:#56ff2c;fill-opacity:1"
     inkscape:connector-curvature="0"
     sodipodi:nodetypes="ccccccccccc" /></svg>