<?xml version="1.0" encoding="UTF-8" standalone="no"?>
<!-- Created with Inkscape (http://www.inkscape.org/) -->

<svg
   xmlns:dc="http://purl.org/dc/elements/1.1/"
   xmlns:cc="http://creativecommons.org/ns#"
   xmlns:rdf="http://www.w3.org/1999/02/22-rdf-syntax-ns#"
   xmlns:svg="http://www.w3.org/2000/svg"
   xmlns="http://www.w3.org/2000/svg"
   xmlns:sodipodi="http://sodipodi.sourceforge.net/DTD/sodipodi-0.dtd"
   xmlns:inkscape="http://www.inkscape.org/namespaces/inkscape"
   id="svg4318"
   version="1.1"
   inkscape:version="0.91 r13725"
   width="22.799999"
   height="15"
   viewBox="0 0 22.799999 15"
   sodipodi:docname="credential.svg">
  <metadata
     id="metadata4324">
    <rdf:RDF>
      <cc:Work
         rdf:about="">
        <dc:format>image/svg+xml</dc:format>
        <dc:type
           rdf:resource="http://purl.org/dc/dcmitype/StillImage" />
        <dc:title></dc:title>
      </cc:Work>
    </rdf:RDF>
  </metadata>
  <defs
     id="defs4322" />
  <sodipodi:namedview
     pagecolor="#ffffff"
     bordercolor="#666666"
     borderopacity="1"
     objecttolerance="10"
     gridtolerance="10"
     guidetolerance="10"
     inkscape:pageopacity="0"
     inkscape:pageshadow="2"
     inkscape:window-width="1366"
     inkscape:window-height="713"
     id="namedview4320"
     showgrid="false"
     inkscape:zoom="12.610071"
     inkscape:cx="-6.1775786"
     inkscape:cy="-1.2031859"
     inkscape:window-x="0"
     inkscape:window-y="26"
     inkscape:window-maximized="1"
     inkscape:current-layer="svg4318" />
  <path
     style="fill:#000000"
     d="M 0.71180635,13.271463 C 0.68803077,12.201927 0.88455076,9.8436582 0.85273419,6.8640956 l -0.0648838,-6.07624513 10.50000061,0 10.499999,0 0,6.60000003 0,6.5999995 -10.363372,-0.03403 C -0.05210492,13.916138 0.73314617,14.231426 0.71180635,13.271463 Z M 20.88785,7.3878505 l 0,-5.7 -9.599999,0 -9.6000006,0 0,5.7 0,5.6999995 9.6000006,0 9.599999,0 z M 2.8878504,9.5232607 c 0,-0.3105246 0.2933697,-0.6996523 0.6022022,-0.936771 C 4.3763757,7.9059793 4.6821185,8.4384381 3.7514811,6.8565577 3.2156909,5.9458313 3.7249184,5.1654771 4.3492787,4.7198619 c 1.4126011,-1.0081941 3.3236929,0.4186991 2.47494,2.1366958 -0.6235843,1.2622234 -1.1403529,0.7718657 0.261429,1.729932 1.2714146,0.868965 0.481685,1.5013603 -1.797797,1.5013603 -1.32,0 -2.4000003,-0.2540647 -2.4000003,-0.5645893 z m 7.2000006,-0.03541 c 0,-0.3499998 1.999999,-0.6 4.799999,-0.6 2.8,0 4.8,0.2500002 4.8,0.6 0,0.3499998 -2,0.6000003 -4.8,0.6000003 -2.8,0 -4.799999,-0.2500005 -4.799999,-0.6000003 z M 9.7997297,7.7070721 C 9.3940916,7.6940756 9.4744229,7.012903 9.9387652,6.8347348 c 1.2270708,-0.028717 7.6271428,-0.268609 9.9412358,0.1023239 0.658152,0.1054971 0.277365,0.5534078 0.1475,0.6093952 C 19.03623,7.9738114 13.986763,7.8412227 9.7997297,7.7070721 Z M 10.087851,5.2878505 c 0,-0.1018999 -0.3062823,-0.3539268 0.0032,-0.4351721 0.753412,-0.1978116 2.812039,-0.1648279 4.79684,-0.1648279 1.725526,0 3.702343,-0.063659 4.53938,0.091122 0.521218,0.096382 0.19063,0.394246 0.26062,0.5088778 0.237905,0.3896508 -1.960349,0.6793017 -4.760349,0.6793017 -2.8,0 -4.643345,-0.2870154 -4.799999,-0.6 z"
     id="path4328"
     inkscape:connector-curvature="0"
     sodipodi:nodetypes="sscccccsscccccccccsssssssssssssscssscssssssc" />
</svg>
