<?xml version="1.0" encoding="UTF-8" standalone="no"?>
<!-- Created with Inkscape (http://www.inkscape.org/) -->

<svg
   xmlns:dc="http://purl.org/dc/elements/1.1/"
   xmlns:cc="http://creativecommons.org/ns#"
   xmlns:rdf="http://www.w3.org/1999/02/22-rdf-syntax-ns#"
   xmlns:svg="http://www.w3.org/2000/svg"
   xmlns="http://www.w3.org/2000/svg"
   xmlns:sodipodi="http://sodipodi.sourceforge.net/DTD/sodipodi-0.dtd"
   xmlns:inkscape="http://www.inkscape.org/namespaces/inkscape"
   id="svg4190"
   version="1.1"
   inkscape:version="0.91 r13725"
   width="18"
   height="18.6"
   viewBox="0 0 18 18.6"
   sodipodi:docname="skills-svg.svg">
  <metadata
     id="metadata4196">
    <rdf:RDF>
      <cc:Work
         rdf:about="">
        <dc:format>image/svg+xml</dc:format>
        <dc:type
           rdf:resource="http://purl.org/dc/dcmitype/StillImage" />
        <dc:title></dc:title>
      </cc:Work>
    </rdf:RDF>
  </metadata>
  <defs
     id="defs4194" />
  <sodipodi:namedview
     pagecolor="#ffffff"
     bordercolor="#666666"
     borderopacity="1"
     objecttolerance="10"
     gridtolerance="10"
     guidetolerance="10"
     inkscape:pageopacity="0"
     inkscape:pageshadow="2"
     inkscape:window-width="1366"
     inkscape:window-height="713"
     id="namedview4192"
     showgrid="false"
     inkscape:zoom="14.38172"
     inkscape:cx="13.779165"
     inkscape:cy="6.2207547"
     inkscape:window-x="0"
     inkscape:window-y="26"
     inkscape:window-maximized="1"
     inkscape:current-layer="svg4190" />
  <path
     style="fill:#8e9393;fill-opacity:1"
     d="m 1.3647708,16.141685 c 0.941575,-2.859478 1.11324,-3.169829 2.224093,-4.467611 1.110854,-1.297783 2.019734,-2.5429921 2.019734,-2.7671321 0,-0.2241396 -1.077217,-1.6313106 -2.393816,-3.127046 L 0.82096457,3.0603764 2.4345648,2.0031047 l 1.613601,-1.0572716 2.304025,2.5963113 2.304025,2.5963111 2.8432872,-2.8005338 2.843288,-2.8005341 1.629443,1.6294433 1.629444,1.6294434 -2.805924,2.8487594 -2.805924,2.8487602 2.557578,3.0331351 2.557578,3.033137 -1.398194,1.179833 -1.398194,1.179833 -2.5691,-2.773777 -2.5691002,-2.773778 -2.497332,2.409612 c -1.335456,1.288549 -2.679483,2.150491 -3.162294,2.34008 -0.796833,0.312897 -0.427075,0.106002 -1.855325,0.772509 -0.85439313,0.398711 -0.85592643,-0.03608 -0.290676,-1.752693 z m 2.37586,-0.262783 c -1.376132,-0.99882 -1.435476,-1.272449 -1.6625,-0.2375 -0.312897,1.426425 -0.696109,1.901616 0.880467,1.089065 1.583944,-0.816348 1.354915,-0.435759 0.782033,-0.851565 z M 15.657201,15.684657 c 0.801041,-0.684635 -0.112107,-1.252067 -1.8165,-3.156137 -1.709172,-1.90941 -1.850871,-3.0347261 -3.191309,-1.748916 -1.5684602,1.504541 -0.618262,1.499246 1.340356,3.488684 2.382293,2.419778 1.883595,2.940999 3.667453,1.416369 z M 9.1432578,11.50828 C 12.634852,7.6396345 13.359811,7.7892807 11.741013,6.3209749 10.629995,5.3132431 11.043485,4.8032637 12.022185,5.8447844 c 2.039218,2.1701118 2.60622,0.1432593 1.077192,-1.1219702 -1.283902,-1.0623943 -1.700613,0.045044 -5.8433942,4.1057617 -4.771816,4.6772921 -4.974333,4.7425111 -3.747385,5.7565551 0.637751,0.527086 1.38101,0.915759 1.602245,0.926254 0.221234,0.01049 2.035821,-1.790902 4.032415,-4.003105 z M 5.9268418,4.1491501 c -1.797851,-1.8411661 -1.891004,-2.530013 -3.13086,-1.7252194 -1.477703,0.9591808 -0.357605,1.1568296 1.456886,3.1876596 1.91573,2.1441394 1.915709,3.0427118 3.13086,1.7252194 0.861314,-0.9338551 0.556845,-1.1254116 -1.456886,-3.1876596 z m 8.3817562,-0.018683 c -0.597292,-0.66 -0.790073,-1.2 -0.428403,-1.2 0.36167,0 0.798747,0.2873434 1.028403,0.6 0.829745,1.1296262 0.700657,0.708897 1.068743,0.6 0.94012,-0.2781308 0.08903,-0.6075 -0.655162,-1.35 -1.144382,-1.1417725 -1.262584,-1.0703974 -1.90298,-0.4637036 -0.962839,0.9121676 -1.142069,0.987411 0.09985,1.9847664 0.615213,0.4940636 1.141565,1.346002 1.575535,1.0289372 0.555984,-0.4062107 -0.188693,-0.54 -0.785985,-1.2 z"
     id="path4206"
     inkscape:connector-curvature="0"
     sodipodi:nodetypes="sssscccccccccccccccccssssssssssssssssssscsssssssssssssss" />
</svg>
