<?xml version="1.0" encoding="UTF-8" standalone="no"?>
<!-- Created with Inkscape (http://www.inkscape.org/) -->

<svg
   xmlns:dc="http://purl.org/dc/elements/1.1/"
   xmlns:cc="http://creativecommons.org/ns#"
   xmlns:rdf="http://www.w3.org/1999/02/22-rdf-syntax-ns#"
   xmlns:svg="http://www.w3.org/2000/svg"
   xmlns="http://www.w3.org/2000/svg"
   xmlns:sodipodi="http://sodipodi.sourceforge.net/DTD/sodipodi-0.dtd"
   xmlns:inkscape="http://www.inkscape.org/namespaces/inkscape"
   id="svg4190"
   version="1.1"
   inkscape:version="0.91 r13725"
   width="60"
   height="60"
   viewBox="0 0 60 60"
   sodipodi:docname="dribbble.svg">
  <metadata
     id="metadata4196">
    <rdf:RDF>
      <cc:Work
         rdf:about="">
        <dc:format>image/svg+xml</dc:format>
        <dc:type
           rdf:resource="http://purl.org/dc/dcmitype/StillImage" />
        <dc:title></dc:title>
      </cc:Work>
    </rdf:RDF>
  </metadata>
  <defs
     id="defs4194" />
  <sodipodi:namedview
     pagecolor="#ffffff"
     bordercolor="#666666"
     borderopacity="1"
     objecttolerance="10"
     gridtolerance="10"
     guidetolerance="10"
     inkscape:pageopacity="0"
     inkscape:pageshadow="2"
     inkscape:window-width="1366"
     inkscape:window-height="713"
     id="namedview4192"
     showgrid="false"
     inkscape:zoom="6.3050355"
     inkscape:cx="40.707614"
     inkscape:cy="24.170041"
     inkscape:window-x="0"
     inkscape:window-y="26"
     inkscape:window-maximized="1"
     inkscape:current-layer="svg4190" />
  <path
     style="fill:#fd63e4;fill-opacity:1"
     d="M 21.154878,58.035694 C 7.3983399,53.661818 -1.6271381,38.160579 1.4852199,24.253098 6.7081889,0.91441204 34.24941,-7.3835865 50.975102,9.3421053 58.381284,16.748286 61.285073,26.202787 59.122087,35.868029 55.289851,52.992264 37.662452,63.284258 21.154878,58.035694 Z m 17.404073,-6.014179 c 0.724566,-1.888189 -2.847743,-15.380467 -4.311812,-16.285311 -2.433326,-1.503879 -17.679932,9.736264 -17.679932,13.034045 0,4.109215 20.499545,7.139874 21.991744,3.251266 z m 10.24469,-6.345357 c 2.61116,-3.319552 5.902006,-10.498212 5.119318,-11.167292 -0.264413,-0.226033 -2.730752,-0.752666 -5.480752,-1.170292 -7.5655,-1.14893 -8.292819,-0.142541 -5.958379,8.244596 1.097131,3.941755 2.423893,7.166829 2.948357,7.166829 0.524464,0 2.04162,-1.383229 3.371456,-3.073841 z M 17.607962,38.95381 c 3.414066,-3.325405 7.97276,-6.777428 10.130431,-7.671165 3.741789,-1.5499 4.735844,-4.851599 1.204815,-4.00173 -0.927574,0.223254 -6.341636,1.028768 -12.03125,1.79003 -9.5362551,1.275939 -10.3447511,1.607253 -10.3447511,4.239175 0,2.423679 3.5853961,11.689879 4.5231971,11.689879 0.170591,0 3.103492,-2.720785 6.517558,-6.046189 z M 54.067207,26.187924 c 0,-2.562258 -3.278868,-9.937925 -4.417924,-9.937925 -0.332047,0 -2.885321,1.652781 -5.673941,3.672847 -2.78862,2.020067 -5.628441,3.858922 -6.310713,4.086346 -0.682272,0.227423 -0.866872,1.387142 -0.410222,2.577152 0.667444,1.739331 2.397473,2.163655 8.821536,2.163655 7.222469,0 7.991264,-0.246483 7.991264,-2.562075 z M 26.828729,21.488476 C 27.793148,20.524058 20.638328,8.75 19.087856,8.75 15.723854,8.75 5.3377589,22.103884 7.2300299,23.996155 8.0443709,24.810496 25.775419,22.541786 26.828729,21.488476 Z M 42.504707,14.625903 C 46.205245,11.25537 46.097688,10.835215 40.899798,8.3565154 36.906443,6.452217 26.567207,5.369936 26.567207,6.8562216 c 0,0.3334219 1.732956,3.4226344 3.851015,6.8649174 3.493958,5.678406 4.102416,6.129251 6.5625,4.862574 1.491316,-0.767867 3.97711,-2.548882 5.523985,-3.95781 z"
     id="path4202"
     inkscape:connector-curvature="0" />
</svg>
