<?xml version="1.0" encoding="UTF-8" standalone="no"?>
<!-- Created with Inkscape (http://www.inkscape.org/) -->

<svg
   xmlns:dc="http://purl.org/dc/elements/1.1/"
   xmlns:cc="http://creativecommons.org/ns#"
   xmlns:rdf="http://www.w3.org/1999/02/22-rdf-syntax-ns#"
   xmlns:svg="http://www.w3.org/2000/svg"
   xmlns="http://www.w3.org/2000/svg"
   xmlns:sodipodi="http://sodipodi.sourceforge.net/DTD/sodipodi-0.dtd"
   xmlns:inkscape="http://www.inkscape.org/namespaces/inkscape"
   id="svg3390"
   version="1.1"
   inkscape:version="0.91 r13725"
   width="19.200001"
   height="21"
   viewBox="0 0 19.200001 21"
   sodipodi:docname="education-grey.svg">
  <metadata
     id="metadata3396">
    <rdf:RDF>
      <cc:Work
         rdf:about="">
        <dc:format>image/svg+xml</dc:format>
        <dc:type
           rdf:resource="http://purl.org/dc/dcmitype/StillImage" />
        <dc:title></dc:title>
      </cc:Work>
    </rdf:RDF>
  </metadata>
  <defs
     id="defs3394" />
  <sodipodi:namedview
     pagecolor="#ffffff"
     bordercolor="#666666"
     borderopacity="1"
     objecttolerance="10"
     gridtolerance="10"
     guidetolerance="10"
     inkscape:pageopacity="0"
     inkscape:pageshadow="2"
     inkscape:window-width="1366"
     inkscape:window-height="713"
     id="namedview3392"
     showgrid="false"
     showguides="false"
     inkscape:zoom="25.47619"
     inkscape:cx="10.305447"
     inkscape:cy="9.7100243"
     inkscape:window-x="0"
     inkscape:window-y="26"
     inkscape:window-maximized="1"
     inkscape:current-layer="svg3390" />
  <path
     style="fill:#8e9393;fill-opacity:1"
     d="M 6.5214953,19.575208 C 4.0725233,18.927173 3.7936036,18.665503 3.5214956,16.760747 3.3564956,15.605747 2.724683,13.928534 2.1174677,13.033606 0.41297626,10.521491 0.23681256,7.2142838 1.6844982,4.9052636 6.0080723,-1.9907226 15.163206,-0.25452927 17.352693,7.8766034 c 0.349396,1.29756 0.770582,2.7118286 0.935969,3.1428196 0.170369,0.443972 -0.317391,0.97899 -0.988742,0.939765 -0.986954,-0.05766 -1.178424,0.974052 -1.178424,2.645387 0,1.984898 -0.139816,2.156172 -1.760147,2.156172 -1.474135,0 -1.790997,0.268114 -1.95,1.65 -0.225888,1.963171 -1.740118,2.262544 -5.8898537,1.164461 z m 4.9101467,-2.064461 c 0.158197,-1.374873 0.515004,-1.681351 2.139854,-1.838015 1.776209,-0.171258 1.95,-0.367866 1.95,-2.206005 0,-1.266922 0.309356,-2.28676 0.864282,-2.323007 C 18.288662,11.019423 15.457731,4.8600487 13.43168,3.1173123 10.248701,0.37942966 3.9864411,1.9412137 2.3550307,5.8797866 1.4271472,8.1198956 1.9092753,11.274864 3.4857492,13.279025 c 0.6229938,0.792008 0.9878838,2.11786 1.0987172,3.090263 0.1609327,1.411952 0.7995259,1.962663 2.2370289,2.267622 3.7371607,0.792817 4.4082047,0.628895 4.6101467,-1.126163 z M 7.6209433,10.623445 c 1.602646,-2.593136 1.610966,-2.8626974 0.08836,-2.8626974 l -1.212194,0 1.224388,-2.4 c 1.297861,-2.5440173 1.576211,-2.7127751 2.9949847,-1.8157968 0.712774,0.4506306 0.743313,0.7174997 0.15,1.3108123 -1.0030637,1.0030638 -0.9392457,1.7049845 0.155016,1.7049845 0.57765,0 0.86673,0.093643 0.809754,0.4221873 -0.07443,0.4291925 -0.739418,1.2592529 -2.1231197,2.8050921 -2.828828,3.160301 -3.752549,3.53003 -2.087187,0.835418 z"
     id="path3416"
     inkscape:connector-curvature="0"
     sodipodi:nodetypes="ssssssssssssssssssssssscsssssss" />
</svg>
