<?xml version="1.0" encoding="UTF-8" standalone="no"?>
<!-- Generator: Adobe Illustrator 17.1.0, SVG Export Plug-In . SVG Version: 6.00 Build 0)  -->

<svg
   xmlns:dc="http://purl.org/dc/elements/1.1/"
   xmlns:cc="http://creativecommons.org/ns#"
   xmlns:rdf="http://www.w3.org/1999/02/22-rdf-syntax-ns#"
   xmlns:svg="http://www.w3.org/2000/svg"
   xmlns="http://www.w3.org/2000/svg"
   xmlns:sodipodi="http://sodipodi.sourceforge.net/DTD/sodipodi-0.dtd"
   xmlns:inkscape="http://www.inkscape.org/namespaces/inkscape"
   version="1.1"
   id="Capa_1"
   x="0px"
   y="0px"
   viewBox="0 0 301.884 301.884"
   style="enable-background:new 0 0 301.884 301.884;"
   xml:space="preserve"
   inkscape:version="0.91 r13725"
   sodipodi:docname="home.svg"><metadata
     id="metadata39"><rdf:RDF><cc:Work
         rdf:about=""><dc:format>image/svg+xml</dc:format><dc:type
           rdf:resource="http://purl.org/dc/dcmitype/StillImage" /></cc:Work></rdf:RDF></metadata><defs
     id="defs37" /><sodipodi:namedview
     pagecolor="#ffffff"
     bordercolor="#666666"
     borderopacity="1"
     objecttolerance="10"
     gridtolerance="10"
     guidetolerance="10"
     inkscape:pageopacity="0"
     inkscape:pageshadow="2"
     inkscape:window-width="1366"
     inkscape:window-height="713"
     id="namedview35"
     showgrid="false"
     inkscape:zoom="3.6177999"
     inkscape:cx="103.19168"
     inkscape:cy="80.421227"
     inkscape:window-x="0"
     inkscape:window-y="26"
     inkscape:window-maximized="1"
     inkscape:current-layer="Capa_1" /><path
     style="fill:#8e9393"
     d="M 297.658,125.357 159.503,17.28 c -2.361,-1.848 -5.401,-2.865 -8.562,-2.865 -3.16,0 -6.2,1.018 -8.56,2.864 L 4.226,125.357 c -5.416,4.236 -4.265,9.128 -3.782,10.526 0.481,1.398 2.589,5.961 9.465,5.961 l 27.5,0 0,133.125 c 0,6.893 5.607,12.5 12.5,12.5 l 64.7,0 c 3.63464,0 92.46672,0.44115 94.75293,-1.70105 1.07159,-1.00409 -21.32945,-4.70437 -43.08423,-6.70139 -19.84072,-1.82132 10.30888,2.26766 10.30888,0.0486 l 0,-59.578 -1.81158,-4.14617 0,59.578 c 0,1.78729 -110.467759,-2.07868 -15.52473,4.19448 4.98232,0.32919 10.53032,0.68631 16.68962,1.07363 4.69997,0.29555 6.32319,7.23189 11.33511,7.23189 l 64.7,0 c 6.893,0 12.5,-5.607 12.5,-12.5 l 0,-133.125 27.5,0 c 6.876,0 8.983,-4.563 9.465,-5.961 0.482,-1.398 1.634,-6.29 -3.782,-10.526 z m -35.683,1.487 c -6.893,0 -12.5,5.607 -12.5,12.5 l 0,133.125 -59.7,0 0,-59.578 c 0,-6.893 -5.607,-12.5 -12.5,-12.5 l -52.666,0 c -6.893,0 -12.5,5.607 -12.5,12.5 l 0,59.578 -59.7,0 0,-133.125 c 0,-6.893 -5.608,-12.5 -12.5,-12.5 l -13.24,0 124.272,-97.217 124.272,97.217 z"
     id="path3"
     inkscape:connector-curvature="0"
     sodipodi:nodetypes="ccscccscssssssccsssssscsscssccssssccsscccs" /><g
     id="g5" /><g
     id="g7" /><g
     id="g9" /><g
     id="g11" /><g
     id="g13" /><g
     id="g15" /><g
     id="g17" /><g
     id="g19" /><g
     id="g21" /><g
     id="g23" /><g
     id="g25" /><g
     id="g27" /><g
     id="g29" /><g
     id="g31" /><g
     id="g33" /></svg>