<?xml version="1.0" encoding="UTF-8" standalone="no"?>
<svg
   xmlns:dc="http://purl.org/dc/elements/1.1/"
   xmlns:cc="http://creativecommons.org/ns#"
   xmlns:rdf="http://www.w3.org/1999/02/22-rdf-syntax-ns#"
   xmlns:svg="http://www.w3.org/2000/svg"
   xmlns="http://www.w3.org/2000/svg"
   xmlns:sodipodi="http://sodipodi.sourceforge.net/DTD/sodipodi-0.dtd"
   xmlns:inkscape="http://www.inkscape.org/namespaces/inkscape"
   viewBox="0 0 24.61035 15.56925"
   width="492.207"
   height="311.38501"
   id="svg2"
   version="1.1"
   inkscape:version="0.91 r13725"
   sodipodi:docname="UK.svg">
  <metadata
     id="metadata21">
    <rdf:RDF>
      <cc:Work
         rdf:about="">
        <dc:format>image/svg+xml</dc:format>
        <dc:type
           rdf:resource="http://purl.org/dc/dcmitype/StillImage" />
        <dc:title></dc:title>
      </cc:Work>
    </rdf:RDF>
  </metadata>
  <defs
     id="defs19" />
  <sodipodi:namedview
     pagecolor="#ffffff"
     bordercolor="#666666"
     borderopacity="1"
     objecttolerance="10"
     gridtolerance="10"
     guidetolerance="10"
     inkscape:pageopacity="0"
     inkscape:pageshadow="2"
     inkscape:window-width="1366"
     inkscape:window-height="713"
     id="namedview17"
     showgrid="false"
     inkscape:zoom="0.67410846"
     inkscape:cx="337.17646"
     inkscape:cy="108.25875"
     inkscape:window-x="0"
     inkscape:window-y="26"
     inkscape:window-maximized="1"
     inkscape:current-layer="svg2" />
  <clipPath
     id="t">
    <path
       d="m 30,15 30,0 0,15 z m 0,0 0,15 -30,0 z M 30,15 0,15 0,0 Z m 0,0 0,-15 30,0 z"
       id="path5"
       inkscape:connector-curvature="0" />
  </clipPath>
  <path
     d="m -0.59647653,-0.38090261 0,16.23494361 25.66295753,0 0,-16.23494361 z"
     id="path7"
     inkscape:connector-curvature="0"
     style="fill:#00247d" />
  <path
     d="M -0.59647653,-0.38090261 25.066481,15.854041 m 0,-16.23494361 L -0.59647653,15.854041"
     id="path9"
     inkscape:connector-curvature="0"
     style="stroke:#ffffff;stroke-width:2.88664699" />
  <path
     d="M 0,0 60,30 M 60,0 0,30"
     clip-path="url(#t)"
     id="path11"
     inkscape:connector-curvature="0"
     transform="matrix(0.42771595,0,0,0.54116482,-0.59647653,-0.3809022)"
     style="stroke:#cf142b;stroke-width:4" />
  <path
     d="m 12.235001,-0.38090261 0,16.23494361 M -0.59647653,7.73657 l 25.66295753,0"
     id="path13"
     inkscape:connector-curvature="0"
     style="stroke:#ffffff;stroke-width:4.81107903" />
  <path
     d="m 12.235001,-0.38090261 0,16.23494361 M -0.59647653,7.73657 l 25.66295753,0"
     id="path15"
     inkscape:connector-curvature="0"
     style="stroke:#cf142b;stroke-width:2.88664699" />
</svg>
