<?xml version="1.0" encoding="UTF-8" standalone="no"?>
<!-- Created with Inkscape (http://www.inkscape.org/) -->

<svg
   xmlns:dc="http://purl.org/dc/elements/1.1/"
   xmlns:cc="http://creativecommons.org/ns#"
   xmlns:rdf="http://www.w3.org/1999/02/22-rdf-syntax-ns#"
   xmlns:svg="http://www.w3.org/2000/svg"
   xmlns="http://www.w3.org/2000/svg"
   xmlns:sodipodi="http://sodipodi.sourceforge.net/DTD/sodipodi-0.dtd"
   xmlns:inkscape="http://www.inkscape.org/namespaces/inkscape"
   id="svg4190"
   version="1.1"
   inkscape:version="0.91 r13725"
   width="18"
   height="18"
   viewBox="0 0 18 18"
   sodipodi:docname="work.svg">
  <metadata
     id="metadata4196">
    <rdf:RDF>
      <cc:Work
         rdf:about="">
        <dc:format>image/svg+xml</dc:format>
        <dc:type
           rdf:resource="http://purl.org/dc/dcmitype/StillImage" />
        <dc:title></dc:title>
      </cc:Work>
    </rdf:RDF>
  </metadata>
  <defs
     id="defs4194" />
  <sodipodi:namedview
     pagecolor="#ffffff"
     bordercolor="#666666"
     borderopacity="1"
     objecttolerance="10"
     gridtolerance="10"
     guidetolerance="10"
     inkscape:pageopacity="0"
     inkscape:pageshadow="2"
     inkscape:window-width="1366"
     inkscape:window-height="713"
     id="namedview4192"
     showgrid="false"
     inkscape:zoom="10.508392"
     inkscape:cx="2.8919377"
     inkscape:cy="0.89718018"
     inkscape:window-x="0"
     inkscape:window-y="26"
     inkscape:window-maximized="1"
     inkscape:current-layer="svg4190" />
  <path
     style="fill:#8e9393;fill-opacity:1"
     d="m 0.86915891,10.68499 0,-6.1823001 L 2.8477232,2.5849898 C 4.690604,0.7987994 5.1145662,0.66728972 9.0300233,0.66728972 c 3.9674297,0 4.3539107,0.0710623 6.1214357,1.97856428 2.036914,2.198226 1.9177,1.3547125 1.9177,8.1 l 0,6.121436 -8.0999997,0 -8.10000039,0 z M 7.7758945,13.633156 C 8.5750113,11.540699 8.6383023,10.730745 8.0836759,9.6944151 7.5064009,8.6157669 7.1880276,8.4735341 6.4815865,9.1399683 5.3396377,10.217247 5.8535796,10.186754 3.422931,6.5172897 c -0.587985,-0.8876601 -1.2242871,-1.65 -1.4831366,-1.65 -0.2588495,0 -0.4706355,2.565 -0.4706355,5.7000003 l 0,5.7 2.6503753,0 c 2.5786061,0 2.6776163,-0.07133 3.6563603,-2.634134 z m 8.6932645,-2.984951 c 0,-4.8238394 -0.04146,-6.140779 -1.243597,-7.4447038 l -1.47911,-1.3882356 -1.854535,1.9268897 c -2.7229447,2.8291807 -2.8426647,2.643318 -0.735253,4.360842 1.351861,1.1017559 1.094863,1.4416349 1.641039,0.3909146 0.02985,-0.057418 0.08716,-0.1027784 0.135054,-0.161576 0.347524,-0.4266309 0.944732,-1.0942233 1.847307,-2.3190518 1.271958,-1.7260975 1.849149,-1.8966479 1.381163,-0.9861813 -0.339244,0.66 -1.989042,2.5949374 -2.618416,3.4106123 -1.083368,1.4040568 -0.952115,1.8072389 -2.047,0.7346862 -0.663554,-0.650019 -0.958199,-0.548928 -1.256583,0.2286468 -0.5618067,1.4640449 -0.4530777,2.5061159 0.499315,4.7855129 0.789197,1.888813 1.093572,2.080729 3.3,2.080729 l 2.430616,0 z m -3.6,-8.9121332 c 0,-0.2578301 -1.755,-0.4687821 -3.8999997,-0.4687821 -2.1450004,0 -3.9000004,0.189646 -3.9000004,0.4214357 0,0.2317896 1.8864895,2.1531216 2.9585544,3.3238318 l 1.949209,2.1285643 C 9.1231003,6.6258611 9.0530703,7.0398726 6.4061113,4.0140319 4.7066558,2.071319 3.9545798,2.0218688 3.3914821,2.5849665 2.3474986,3.62895 2.481352,4.3123456 4.2354072,6.8936697 l 1.5662483,2.304942 3.5337518,-3.496879 C 11.278971,3.7784494 12.869159,1.9939019 12.869159,1.7360718 Z"
     id="path4204"
     inkscape:connector-curvature="0"
     sodipodi:nodetypes="ccssssccccsssssscsssscssssssssssscssssscssscss" />
</svg>
